<svg xmlns="http://www.w3.org/2000/svg" xmlns:xlink="http://www.w3.org/1999/xlink" width="500" zoomAndPan="magnify" viewBox="0 0 375 374.999991" height="500" preserveAspectRatio="xMidYMid meet" version="1.2"><defs><clipPath id="4c50ec6daa"><path d="M 134 140 L 241 140 L 241 219.296875 L 134 219.296875 Z M 134 140 "/></clipPath></defs><g id="ce9e4f5b58"><g clip-rule="nonzero" clip-path="url(#4c50ec6daa)"><path style=" stroke:none;fill-rule:nonzero;fill:#000000;fill-opacity:1;" d="M 190.359375 140.367188 C 185.3125 141.375 183.601562 142.425781 178.074219 148.128906 C 172.105469 154.265625 170.175781 155.363281 164.207031 156.0625 C 160.082031 156.503906 158.414062 156.0625 161.089844 155.1875 C 162.933594 154.574219 164.160156 153.300781 163.941406 152.25 C 163.855469 151.8125 163.109375 151.066406 162.273438 150.582031 C 160.914062 149.75 160.035156 149.660156 154.15625 149.660156 C 148.011719 149.707031 147.441406 149.75 145.6875 150.757812 C 143.054688 152.25 143.230469 153.609375 146.257812 155.230469 L 148.453125 156.457031 L 146.125 156.457031 C 141.121094 156.457031 138.535156 158.871094 136.425781 165.316406 C 134.933594 169.921875 134.582031 173.558594 134.363281 187.8125 C 133.96875 211.097656 134.582031 214.648438 139.585938 217.148438 L 142.089844 218.417969 L 158.765625 218.636719 C 170.394531 218.769531 175.441406 218.726562 175.441406 218.375 C 175.441406 218.066406 170.21875 217.847656 159.113281 217.71875 C 141.605469 217.542969 140.375 217.410156 138.183594 215.304688 C 135.550781 212.851562 135.375 211.621094 135.152344 195.617188 C 134.890625 174 135.945312 165.402344 139.628906 160.363281 C 141.691406 157.554688 142.878906 157.292969 154.988281 157.117188 C 170.523438 156.851562 171.402344 156.503906 180.265625 146.988281 C 184.917969 141.988281 189.484375 140.367188 197.820312 140.847656 C 205.457031 141.242188 209.1875 142.515625 211.46875 145.582031 C 215.15625 150.453125 215.769531 151.019531 218.578125 152.425781 C 220.203125 153.171875 221.738281 153.828125 222.046875 153.828125 C 222.351562 153.871094 223.097656 154.132812 223.667969 154.441406 L 224.765625 155.054688 L 223.316406 155.757812 C 222.484375 156.195312 221.605469 157.160156 221.253906 158.039062 C 218.886719 163.738281 226.652344 167.683594 230.296875 162.640625 C 231.4375 160.976562 231.261719 159.003906 229.769531 157.074219 L 228.804688 155.886719 L 230.425781 156.152344 C 236.308594 157.074219 238.457031 162.773438 239.292969 179.480469 C 239.554688 184.609375 238.851562 210.964844 238.371094 213.816406 C 238.195312 214.910156 237.800781 215.394531 236.527344 216.050781 C 233.015625 217.804688 230.601562 218.066406 217.789062 218.066406 C 196.855469 218.066406 188.429688 216.269531 180.136719 209.957031 C 175.046875 206.097656 171.578125 200.835938 169.953125 194.609375 C 168.550781 189.257812 169.472656 181.277344 172.015625 175.753906 C 173.113281 173.429688 176.363281 169.21875 178.773438 167.027344 C 183.207031 162.949219 188.210938 160.929688 194.53125 160.535156 C 199.09375 160.273438 202.5625 160.84375 206.378906 162.464844 C 213.050781 165.316406 219.238281 172.199219 222.046875 179.917969 C 223.140625 182.898438 223.316406 184.128906 223.363281 187.8125 C 223.40625 193.117188 222.222656 196.933594 219.148438 201.535156 C 217.304688 204.34375 212.480469 209.339844 209.230469 211.796875 C 208.398438 212.457031 207.871094 213.113281 208.003906 213.289062 C 208.703125 213.988281 215.859375 207.457031 219.105469 203.203125 C 223.625 197.195312 225.378906 188.292969 223.449219 181.539062 C 221.824219 175.929688 217.921875 169.746094 213.75 166.148438 C 210.988281 163.78125 205.765625 161.105469 202.164062 160.230469 C 187.289062 156.589844 171.839844 167.15625 168.8125 183.121094 C 168.507812 184.699219 168.375 187.59375 168.507812 189.917969 C 169.121094 200.617188 175.089844 209.078125 185.929688 214.472656 C 190.230469 216.664062 196.285156 217.9375 205.941406 218.726562 C 212.917969 219.296875 225.863281 219.296875 230.164062 218.683594 C 234.15625 218.15625 237.886719 216.621094 238.632812 215.171875 C 238.984375 214.515625 239.421875 209.121094 239.820312 199.914062 C 240.914062 175.445312 239.335938 161.371094 235.078125 157.46875 C 233.761719 156.285156 232.226562 155.667969 228.539062 154.925781 C 225.292969 154.265625 220.507812 152.554688 217.875 151.109375 C 216.867188 150.539062 215.199219 149.003906 214.144531 147.6875 C 210.066406 142.601562 208.835938 141.679688 204.625 140.761719 C 201.070312 139.972656 193.519531 139.796875 190.359375 140.367188 Z M 161.527344 151.328125 C 162.496094 151.765625 163.152344 152.292969 163.066406 152.601562 C 162.714844 153.609375 159.511719 155.097656 156.480469 155.625 C 152.972656 156.238281 148.40625 155.625 146.125 154.265625 C 143.710938 152.773438 144.5 151.679688 148.671875 150.714844 C 151.261719 150.144531 159.640625 150.539062 161.527344 151.328125 Z M 228.585938 157.292969 C 230.953125 159.617188 230.734375 162.070312 228.101562 163.605469 C 226.566406 164.527344 225.777344 164.527344 223.933594 163.695312 C 220.597656 162.070312 220.816406 157.730469 224.328125 156.195312 C 226.347656 155.320312 226.742188 155.40625 228.585938 157.292969 Z M 228.585938 157.292969 "/></g><g style="fill:#000000;fill-opacity:1;"><g transform="translate(177.281931, 196.161316)"><path style="stroke:none" d="M 6.359375 0 L 6.359375 -14.46875 L 0.703125 -14.46875 L 0.703125 -15.4375 L 13.03125 -15.4375 L 13.03125 -14.46875 L 7.390625 -14.46875 L 7.390625 0 Z M 6.359375 0 "/></g></g><g style="fill:#000000;fill-opacity:1;"><g transform="translate(188.467625, 196.161316)"><path style="stroke:none" d="M 1.765625 0 L 1.765625 -15.4375 L 12.75 -15.4375 L 12.75 -14.46875 L 2.796875 -14.46875 L 2.796875 -8.046875 L 9.515625 -8.046875 L 9.515625 -7.171875 L 2.796875 -7.171875 L 2.796875 0 Z M 1.765625 0 "/></g></g><g style="fill:#000000;fill-opacity:1;"><g transform="translate(200.308483, 196.161316)"><path style="stroke:none" d="M 7.59375 0.265625 L 0.265625 -15.4375 L 1.40625 -15.4375 L 7.671875 -1.71875 L 7.8125 -1.71875 L 14.09375 -15.4375 L 15.25 -15.4375 L 7.890625 0.265625 Z M 7.59375 0.265625 "/></g></g></g></svg>